<svg width="569" height="271" viewBox="0 0 569 271" fill="none" xmlns="http://www.w3.org/2000/svg">
<path d="M165.665 164.202V211.175H-23.6709L-27.2842 173.958L78.4043 3.95312H126.461L74.249 89.4072L30.8896 164.202H165.665ZM139.107 3.95312V267H78.2236V3.95312H139.107ZM375.597 111.448V159.505C375.597 178.414 373.368 194.855 368.912 208.826C364.576 222.798 358.313 234.36 350.123 243.514C342.053 252.667 332.418 259.472 321.217 263.929C310.016 268.385 297.67 270.613 284.181 270.613C273.341 270.613 263.224 269.228 253.829 266.458C244.435 263.567 235.943 259.231 228.355 253.45C220.888 247.549 214.444 240.201 209.024 231.409C203.604 222.617 199.449 212.259 196.559 200.335C193.668 188.291 192.223 174.681 192.223 159.505V111.448C192.223 92.4183 194.391 75.9779 198.727 62.127C203.183 48.1556 209.506 36.5931 217.696 27.4395C225.886 18.2858 235.582 11.4808 246.783 7.02441C257.984 2.56803 270.33 0.339844 283.819 0.339844C294.659 0.339844 304.716 1.78516 313.99 4.67578C323.385 7.44596 331.876 11.7819 339.464 17.6836C347.052 23.4648 353.495 30.7516 358.795 39.5439C364.215 48.3363 368.37 58.7546 371.261 70.7988C374.151 82.7227 375.597 96.2725 375.597 111.448ZM314.713 166.912V103.68C314.713 95.2487 314.231 87.9017 313.268 81.6387C312.424 75.3757 311.1 70.0762 309.293 65.7402C307.607 61.4043 305.499 57.9115 302.97 55.2617C300.44 52.4915 297.55 50.5042 294.298 49.2998C291.166 47.9749 287.674 47.3125 283.819 47.3125C279.002 47.3125 274.666 48.3363 270.812 50.3838C267.078 52.3109 263.886 55.4424 261.236 59.7783C258.587 64.1143 256.539 69.8955 255.094 77.1221C253.769 84.3486 253.106 93.2012 253.106 103.68V166.912C253.106 175.464 253.528 182.931 254.371 189.314C255.335 195.577 256.66 200.937 258.346 205.394C260.152 209.729 262.32 213.283 264.85 216.053C267.379 218.702 270.27 220.63 273.521 221.834C276.773 223.038 280.326 223.641 284.181 223.641C288.878 223.641 293.093 222.677 296.827 220.75C300.561 218.823 303.753 215.691 306.402 211.355C309.173 206.899 311.22 201.058 312.545 193.831C313.99 186.484 314.713 177.511 314.713 166.912ZM594.923 164.202V211.175H405.587L401.974 173.958L507.662 3.95312H555.719L503.507 89.4072L460.147 164.202H594.923ZM568.365 3.95312V267H507.481V3.95312H568.365Z" fill="#FF9933"/>
</svg>
