<?xml version="1.0" standalone="no"?>
<!DOCTYPE svg PUBLIC "-//W3C//DTD SVG 20010904//EN"
 "http://www.w3.org/TR/2001/REC-SVG-20010904/DTD/svg10.dtd">
<svg version="1.0" xmlns="http://www.w3.org/2000/svg"
 width="2880.000000pt" height="2160.000000pt" viewBox="0 0 2880.000000 2160.000000"
 preserveAspectRatio="xMidYMid meet">

<g transform="translate(0.000000,2160.000000) scale(0.100000,-0.100000)"
fill="#000000" stroke="none">
<path d="M14590 19658 c-60 -31 -83 -66 -84 -127 -1 -35 5 -58 20 -78 24 -33
97 -73 134 -73 36 0 110 40 134 72 27 38 28 117 0 155 -24 33 -97 73 -134 73
-14 0 -46 -10 -70 -22z"/>
<path d="M16440 16069 c-165 -19 -366 -97 -514 -199 -371 -257 -544 -727 -425
-1162 27 -98 115 -278 177 -358 239 -314 624 -481 1012 -441 538 56 946 456
1001 980 21 198 -13 375 -105 566 -170 347 -490 570 -886 615 -97 11 -154 11
-260 -1z"/>
<path d="M8424 15691 c-291 -47 -510 -265 -554 -555 -40 -267 107 -542 353
-660 119 -57 179 -71 307 -69 84 0 121 6 185 27 250 80 416 274 455 530 40
267 -107 543 -353 660 -50 24 -112 49 -137 54 -65 16 -197 22 -256 13z"/>
<path d="M1090 14029 c-372 -36 -736 -204 -1012 -468 l-78 -74 0 -1178 0
-1177 93 -87 c230 -215 516 -364 816 -425 163 -33 334 -44 485 -31 761 66
1373 600 1540 1342 103 459 17 930 -242 1329 -245 377 -644 651 -1080 739
-181 37 -348 47 -522 30z"/>
<path d="M25325 7614 c-834 -36 -1534 -162 -2273 -410 -1852 -621 -3415 -1923
-4374 -3644 -570 -1023 -917 -2244 -964 -3394 l-7 -166 5546 0 5547 0 0 3469
0 3469 -27 10 c-16 6 -91 37 -168 70 -736 311 -1590 513 -2437 577 -193 14
-691 26 -843 19z"/>
<path d="M7710 5874 c-1102 -78 -2004 -862 -2219 -1929 -34 -168 -45 -282 -45
-475 0 -328 52 -598 170 -892 330 -822 1067 -1385 1964 -1500 120 -15 458 -15
570 1 564 78 1042 312 1425 696 381 381 616 865 686 1415 16 123 16 437 0 565
-138 1106 -1006 1971 -2110 2105 -96 11 -358 20 -441 14z"/>
</g>
</svg>
