<svg width="30" height="30" viewBox="0 0 30 30" fill="none" xmlns="http://www.w3.org/2000/svg">
<path d="M15 30C6.717 30 0 23.283 0 15C0 6.717 6.717 0 15 0C23.283 0 30 6.717 30 15C30 23.283 23.283 30 15 30Z" fill="url(#paint0_linear_0_1)"/>
<path d="M15.0001 6.60672C17.7331 6.60672 18.0571 6.61572 19.1371 6.66672C20.1361 6.71172 20.6791 6.87972 21.0391 7.02072C21.5161 7.20672 21.8581 7.42872 22.2151 7.78572C22.5721 8.14272 22.7941 8.48472 22.9801 8.96172C23.1211 9.32172 23.2861 9.86472 23.3341 10.8637C23.3821 11.9437 23.3941 12.2677 23.3941 15.0007C23.3941 17.7337 23.3851 18.0577 23.3341 19.1377C23.2891 20.1367 23.1211 20.6797 22.9801 21.0397C22.7941 21.5167 22.5721 21.8587 22.2151 22.2157C21.8581 22.5727 21.5161 22.7947 21.0391 22.9807C20.6791 23.1217 20.1361 23.2867 19.1371 23.3347C18.0571 23.3827 17.7331 23.3947 15.0001 23.3947C12.2671 23.3947 11.9431 23.3857 10.8631 23.3347C9.86406 23.2897 9.32106 23.1217 8.96106 22.9807C8.48406 22.7947 8.14206 22.5727 7.78506 22.2157C7.42806 21.8587 7.20606 21.5167 7.02006 21.0397C6.87906 20.6797 6.71406 20.1367 6.66606 19.1377C6.61806 18.0577 6.60606 17.7337 6.60606 15.0007C6.60606 12.2677 6.61506 11.9437 6.66606 10.8637C6.71106 9.86472 6.87906 9.32172 7.02006 8.96172C7.20606 8.48472 7.42806 8.14272 7.78506 7.78572C8.14206 7.42872 8.48406 7.20672 8.96106 7.02072C9.32106 6.87972 9.86406 6.71472 10.8631 6.66672C11.9431 6.61572 12.2671 6.60672 15.0001 6.60672ZM15.0001 4.76172C12.2191 4.76172 11.8711 4.77372 10.7791 4.82472C9.69006 4.87572 8.94606 5.04672 8.29206 5.30172C7.62006 5.55972 7.04706 5.91072 6.48006 6.48072C5.91006 7.05072 5.56206 7.62072 5.29806 8.29572C5.04606 8.94672 4.87206 9.69072 4.82106 10.7827C4.77006 11.8747 4.75806 12.2227 4.75806 15.0037C4.75806 17.7847 4.77006 18.1327 4.82106 19.2247C4.87206 20.3137 5.04306 21.0577 5.29806 21.7117C5.55906 22.3807 5.91006 22.9537 6.48006 23.5207C7.05006 24.0907 7.62006 24.4387 8.29506 24.7027C8.94606 24.9547 9.69006 25.1287 10.7821 25.1797C11.8741 25.2307 12.2221 25.2427 15.0031 25.2427C17.7841 25.2427 18.1321 25.2307 19.2241 25.1797C20.3131 25.1287 21.0571 24.9577 21.7111 24.7027C22.3801 24.4417 22.9531 24.0907 23.5201 23.5207C24.0901 22.9507 24.4381 22.3807 24.7021 21.7057C24.9541 21.0547 25.1281 20.3107 25.1791 19.2187C25.2301 18.1267 25.2421 17.7787 25.2421 14.9977C25.2421 12.2167 25.2301 11.8687 25.1791 10.7767C25.1281 9.68772 24.9571 8.94372 24.7021 8.28972C24.4411 7.62072 24.0901 7.04772 23.5201 6.48072C22.9501 5.91072 22.3801 5.56272 21.7051 5.29872C21.0541 5.04672 20.3101 4.87272 19.2181 4.82172C18.1291 4.77372 17.7811 4.76172 15.0001 4.76172Z" fill="white"/>
<path d="M15 9.74219C12.096 9.74219 9.74097 12.0972 9.74097 15.0012C9.74097 17.9052 12.096 20.2602 15 20.2602C17.904 20.2602 20.259 17.9052 20.259 15.0012C20.259 12.0972 17.904 9.74219 15 9.74219ZM15 18.4152C13.116 18.4152 11.586 16.8882 11.586 15.0012C11.586 13.1142 13.116 11.5872 15 11.5872C16.884 11.5872 18.414 13.1142 18.414 15.0012C18.414 16.8882 16.884 18.4152 15 18.4152Z" fill="white"/>
<path d="M20.4661 10.7647C21.1454 10.7647 21.6961 10.214 21.6961 9.53469C21.6961 8.85538 21.1454 8.30469 20.4661 8.30469C19.7868 8.30469 19.2361 8.85538 19.2361 9.53469C19.2361 10.214 19.7868 10.7647 20.4661 10.7647Z" fill="white"/>
<defs>
<linearGradient id="paint0_linear_0_1" x1="4.39339" y1="25.6066" x2="25.6066" y2="4.39339" gradientUnits="userSpaceOnUse">
<stop stop-color="#FFD521"/>
<stop offset="0.0551048" stop-color="#FFD020"/>
<stop offset="0.1241" stop-color="#FEC01E"/>
<stop offset="0.2004" stop-color="#FCA71B"/>
<stop offset="0.2821" stop-color="#FA8316"/>
<stop offset="0.3681" stop-color="#F85510"/>
<stop offset="0.4563" stop-color="#F51E09"/>
<stop offset="0.5" stop-color="#F30005"/>
<stop offset="0.5035" stop-color="#F20007"/>
<stop offset="0.5966" stop-color="#E1003B"/>
<stop offset="0.6879" stop-color="#D30067"/>
<stop offset="0.7757" stop-color="#C70088"/>
<stop offset="0.8589" stop-color="#BF00A0"/>
<stop offset="0.9357" stop-color="#BB00AF"/>
<stop offset="1" stop-color="#B900B4"/>
</linearGradient>
</defs>
</svg>
