<svg width="30" height="30" viewBox="0 0 30 30" fill="none" xmlns="http://www.w3.org/2000/svg">
<path d="M15 30C6.717 30 0 23.283 0 15C0 6.717 6.717 0 15 0C23.283 0 30 6.717 30 15C30 23.283 23.283 30 15 30Z" fill="#0078B5"/>
<path d="M5.52601 11.6202H9.51301V24.4512H5.52601V11.6202ZM7.52101 5.24219C8.79601 5.24219 9.83101 6.27719 9.83101 7.55519C9.83101 8.83319 8.79601 9.86818 7.52101 9.86818C6.24301 9.86818 5.20801 8.83319 5.20801 7.55519C5.20501 6.28019 6.24001 5.24219 7.52101 5.24219Z" fill="white"/>
<path d="M12.0149 11.6218H15.8399V13.3738H15.8939C16.4249 12.3658 17.7239 11.3008 19.6679 11.3008C23.7059 11.3008 24.4529 13.9588 24.4529 17.4118V24.4528H20.4659V18.2158C20.4659 16.7248 20.4389 14.8138 18.3929 14.8138C16.3169 14.8138 15.9989 16.4338 15.9989 18.1078V24.4558H12.0149V11.6218Z" fill="white"/>
</svg>
