<svg width="18" height="14" viewBox="0 0 18 14" fill="none" xmlns="http://www.w3.org/2000/svg">
<path d="M9.00027 10.7488C7.02501 10.7488 5.42605 9.21986 5.27891 7.28236L2.54714 5.17116C2.18803 5.62168 1.85756 6.09798 1.59089 6.61882C1.53132 6.73666 1.50028 6.86685 1.50028 6.9989C1.50028 7.13094 1.53132 7.26113 1.59089 7.37897C3.00313 10.1344 5.79897 11.9988 9.00027 11.9988C9.70105 11.9988 10.3771 11.8946 11.0287 11.7264L9.67735 10.6808C9.45418 10.7239 9.22756 10.7467 9.00027 10.7488ZM17.1727 12.2618L14.2938 10.0368C15.1683 9.29978 15.8875 8.39624 16.4096 7.37871C16.4692 7.26087 16.5003 7.13068 16.5003 6.99864C16.5003 6.86659 16.4692 6.7364 16.4096 6.61856C14.9974 3.86309 12.2016 1.99877 9.00027 1.99877C7.65951 2.00039 6.34053 2.33793 5.16381 2.98054L1.85079 0.41986C1.80759 0.386242 1.75818 0.361467 1.7054 0.34695C1.65262 0.332433 1.5975 0.328459 1.54318 0.335254C1.48886 0.34205 1.43642 0.359483 1.38884 0.386556C1.34126 0.413629 1.29948 0.449812 1.26589 0.493037L0.754696 1.15111C0.686883 1.23835 0.656497 1.34894 0.67022 1.45858C0.683943 1.56822 0.740651 1.66792 0.827873 1.73575L16.1497 13.5777C16.193 13.6113 16.2424 13.6361 16.2951 13.6506C16.3479 13.6651 16.403 13.6691 16.4574 13.6623C16.5117 13.6555 16.5641 13.638 16.6117 13.611C16.6593 13.5839 16.7011 13.5477 16.7346 13.5045L17.2461 12.8464C17.3139 12.7592 17.3442 12.6485 17.3305 12.5389C17.3167 12.4293 17.2599 12.3296 17.1727 12.2618ZM12.3883 8.56387L11.3649 7.77272C11.451 7.52363 11.4968 7.26233 11.5003 6.99877C11.5054 6.6129 11.4199 6.23121 11.2507 5.88438C11.0815 5.53754 10.8333 5.23521 10.5261 5.00169C10.2189 4.76816 9.86116 4.60994 9.48169 4.53974C9.10223 4.46954 8.71159 4.48931 8.34115 4.59746C8.49819 4.81025 8.58313 5.06764 8.5836 5.3321C8.57972 5.4201 8.56627 5.50742 8.5435 5.59252L6.62657 4.11101C7.29245 3.55455 8.13249 3.24941 9.00027 3.24877C9.4928 3.24849 9.98056 3.3453 10.4357 3.53366C10.8908 3.72202 11.3043 3.99823 11.6525 4.3465C12.0008 4.69478 12.277 5.10828 12.4654 5.56338C12.6537 6.01847 12.7505 6.50623 12.7503 6.99877C12.7503 7.56205 12.6125 8.08705 12.3883 8.56413V8.56387Z" fill="#9FA2B4"/>
</svg>
