<svg width="14" height="14" viewBox="0 0 14 14" fill="none" xmlns="http://www.w3.org/2000/svg">
<path d="M0 -0.25H-0.25V0V14V14.25H0H14H14.25V14V13.125V12.875H14H1.125V0V-0.25H0.875H0ZM9.28213 8.31066L12 4.98799V6.5625C12 6.74484 12.0724 6.9197 12.2014 7.04864C12.3303 7.17757 12.5052 7.25 12.6875 7.25C12.8698 7.25 13.0447 7.17757 13.1736 7.04864C13.3026 6.9197 13.375 6.74484 13.375 6.5625V3.0625C13.375 2.88016 13.3026 2.7053 13.1736 2.57636C13.0447 2.44743 12.8698 2.375 12.6875 2.375H9.1875C9.00516 2.375 8.8303 2.44743 8.70136 2.57636C8.57243 2.7053 8.5 2.88016 8.5 3.0625C8.5 3.24484 8.57243 3.4197 8.70136 3.54864C8.8303 3.67757 9.00516 3.75 9.1875 3.75H11.2368L8.69909 6.85184L6.61156 4.76351L6.61144 4.76338C6.54113 4.69315 6.45644 4.639 6.36319 4.60465C6.26995 4.5703 6.17036 4.55657 6.0713 4.56441C5.97223 4.57225 5.87605 4.60147 5.78937 4.65007C5.70275 4.69862 5.62768 4.76537 5.56932 4.84571C5.56927 4.84577 5.56923 4.84582 5.56919 4.84588L2.06932 9.65821L2.06918 9.65811L2.06401 9.66579C1.96478 9.81344 1.92663 9.9938 1.9576 10.169C1.98857 10.3442 2.08623 10.5005 2.23007 10.6052C2.37391 10.7099 2.55273 10.7547 2.72894 10.7303C2.90515 10.7059 3.06504 10.6141 3.17501 10.4743L3.17515 10.4744L3.18068 10.4668L6.2076 6.30478L8.26435 8.36153L8.26451 8.36169C8.33243 8.42948 8.41378 8.4823 8.50335 8.51676C8.59291 8.55122 8.68869 8.56654 8.78453 8.56175C8.88038 8.55696 8.97416 8.53216 9.05983 8.48894C9.14551 8.44572 9.22119 8.38504 9.28201 8.31081L9.28213 8.31066Z" fill="white" stroke="white" stroke-width="0.5"/>
</svg>
