<svg width="15" height="18" viewBox="0 0 15 18" fill="none" xmlns="http://www.w3.org/2000/svg">
<path d="M7.35084 0L0.273926 4.67074L7.35084 9.33874L14.4278 4.67074L7.35084 0Z" fill="#888888"/>
<path d="M0.000488281 9.16484L1.29344 10.0298C1.43138 10.1222 1.46741 10.3073 1.37446 10.4444C1.31741 10.5279 1.22152 10.5758 1.12549 10.5758C1.06844 10.5758 1.00844 10.5579 0.957547 10.525L0.000495082 9.88674V10.4594L2.04344 11.8196C2.18139 11.912 2.21742 12.0971 2.12447 12.2343C2.06742 12.3209 1.97153 12.3656 1.8755 12.3656C1.81844 12.3656 1.75844 12.3509 1.70755 12.318L0.000502407 11.1782V12.3954L7.05033 17.099V9.85686L0.000502407 5.20703L0.000488281 9.16484Z" fill="#888888"/>
<path d="M12.7929 6.46601V11.0058L11.0169 10.7106L8.81793 14.0123V9.08789L7.65088 9.8572V17.0994L14.7007 12.3957V5.20703L12.7929 6.46601Z" fill="#888888"/>
<path d="M10.8035 10.2217L12.3426 10.4752V6.76172L9.26758 8.79006V12.5272L10.8035 10.2217Z" fill="#888888"/>
</svg>
