<?xml version="1.0" encoding="utf-8"?>
<!-- Generator: Adobe Illustrator 26.0.1, SVG Export Plug-In . SVG Version: 6.00 Build 0)  -->
<svg version="1.1" id="Layer_1" xmlns="http://www.w3.org/2000/svg" xmlns:xlink="http://www.w3.org/1999/xlink" x="0px" y="0px"
	 viewBox="0 0 34 34" style="enable-background:new 0 0 1920 1080;" xml:space="preserve">
<style type="text/css">
	.st0{fill:#FFFFFF;}
	.st1{fill:#0D60E9;}
	.st2{fill:none;stroke:#FF9933;stroke-width:44.0118;stroke-miterlimit:10;}
</style>
<rect x="-20" y="-20" class="st0" width="34" height="34"/>
<g>
	<path class="st2" d="M960,485.64L960,485.64c-95.45,0-172.82-77.37-172.82-172.82v0C787.18,217.37,864.55,140,960,140h0
		c95.45,0,172.82,77.37,172.82,172.82v0C1132.82,408.27,1055.45,485.64,960,485.64z"/>
	<path class="st1" d="M1206.65,940H713.35c-44.81,0-81.14-36.33-81.14-81.14V365.56c0-44.81,36.33-81.14,81.14-81.14h493.31
		c44.81,0,81.14,36.33,81.14,81.14v493.31C1287.79,903.67,1251.46,940,1206.65,940z"/>
	<g>
		<g>
			<path class="st0" d="M955.67,858.86c-144.06,0-261.26-117.2-261.26-261.26s117.2-261.26,261.26-261.26
				s261.26,117.2,261.26,261.26S1099.73,858.86,955.67,858.86z M955.67,436.96c-88.58,0-160.65,72.07-160.65,160.65
				s72.07,160.65,160.65,160.65s160.65-72.07,160.65-160.65S1044.25,436.96,955.67,436.96z"/>
		</g>
		<g>
			
				<rect x="1051.53" y="631.3" transform="matrix(0.7071 -0.7071 0.7071 0.7071 -203.2059 996.9561)" class="st0" width="100.61" height="224.93"/>
		</g>
	</g>
</g>
</svg>
