<?xml version="1.0" encoding="utf-8"?>
<!-- Generator: Adobe Illustrator 26.0.1, SVG Export Plug-In . SVG Version: 6.00 Build 0)  -->
<svg version="1.1" id="Layer_1" xmlns="http://www.w3.org/2000/svg" xmlns:xlink="http://www.w3.org/1999/xlink" x="0px" y="0px"
	 viewBox="0 0 1920 1080" style="enable-background:new 0 0 1920 1080;" xml:space="preserve">
<style type="text/css">
	.st0{fill:#FFFFFF;}
	.st1{fill:#0D60E9;}
	.st2{fill:none;stroke:#FF9933;stroke-width:31.5118;stroke-miterlimit:10;}
</style>
<rect x="-20" y="-20" class="" width="1960" height="1120" fill="none"/>
<g>
	<path class="st2" d="M572.98,462.47L572.98,462.47c-68.34,0-123.74-55.4-123.74-123.74v0c0-68.34,55.4-123.74,123.74-123.74h0
		c68.34,0,123.74,55.4,123.74,123.74v0C696.72,407.07,641.32,462.47,572.98,462.47z"/>
	<path class="st1" d="M749.58,787.79h-353.2c-32.08,0-58.09-26.01-58.09-58.09V376.5c0-32.08,26.01-58.09,58.09-58.09h353.2
		c32.08,0,58.09,26.01,58.09,58.09v353.2C807.67,761.78,781.66,787.79,749.58,787.79z"/>
	<g>
		<g>
			<path class="st1" d="M929.72,416.71c-7.64,7.49-16.88,11.23-27.7,11.23c-11.15,0-20.62-3.74-28.42-11.23
				c-7.81-7.48-11.7-16.64-11.7-27.47c0-10.51,3.9-19.5,11.7-26.99c7.8-7.48,17.27-11.23,28.42-11.23c10.82,0,20.06,3.75,27.7,11.23
				c7.64,7.49,11.46,16.48,11.46,26.99C941.18,400.08,937.36,409.23,929.72,416.71z M866.19,456.12h71.65v262.24h-71.65V456.12z"/>
			<path class="st1" d="M1067.76,706.65c-21.97-12.25-39.41-28.9-52.3-49.92c-12.9-21.02-19.35-43.95-19.35-68.78
				c0-24.84,6.45-47.68,19.35-68.54c12.9-20.85,30.25-37.41,52.06-49.68c21.81-12.25,45.62-18.39,71.41-18.39
				c27.7,0,52.78,6.61,75.23,19.82c22.45,13.22,40.36,32.09,53.74,56.6l-64.48,25.32c-7.64-13.05-17.04-22.85-28.18-29.38
				c-11.15-6.52-23.25-9.79-36.3-9.79c-20.7,0-37.82,7.01-51.35,21.02c-13.54,14.02-20.3,31.69-20.3,53.02
				c0,21.34,6.84,39.01,20.54,53.02c13.69,14.02,30.88,21.02,51.59,21.02c28.66,0,50.79-12.73,66.39-38.21l60.66,23.88
				c-25.16,51.59-67.51,77.38-127.06,77.38C1113.61,725.04,1089.73,718.91,1067.76,706.65z"/>
			<path class="st1" d="M1391.13,357.24v210.17l89.32-110.34h87.41L1462.3,579.36l109.86,139h-86.46l-68.78-85.98l-25.79,29.61
				v56.36h-71.65V357.24H1391.13z"/>
		</g>
	</g>
	<g>
		<g>
			<path class="st0" d="M569.88,729.7c-103.14,0-187.06-83.91-187.06-187.06s83.91-187.06,187.06-187.06s187.06,83.91,187.06,187.06
				S673.02,729.7,569.88,729.7z M569.88,427.62c-63.42,0-115.02,51.6-115.02,115.02s51.6,115.02,115.02,115.02
				s115.02-51.6,115.02-115.02S633.3,427.62,569.88,427.62z"/>
		</g>
		<g>
			
				<rect x="638.51" y="566.77" transform="matrix(0.7071 -0.7071 0.7071 0.7071 -260.138 666.5509)" class="st0" width="72.03" height="161.05"/>
		</g>
	</g>
</g>
</svg>
