<svg width="24" height="26" viewBox="0 0 24 26" fill="none" xmlns="http://www.w3.org/2000/svg">
<path d="M21.375 2.375L19.5 0.5L17.625 2.375L15.75 0.5L13.875 2.375L12 0.5L10.125 2.375L8.25 0.5L6.375 2.375L4.5 0.5V18H0.75V21.75C0.75 23.825 2.425 25.5 4.5 25.5H19.5C21.575 25.5 23.25 23.825 23.25 21.75V0.5L21.375 2.375ZM15.75 23H4.5C3.8125 23 3.25 22.4375 3.25 21.75V20.5H15.75V23ZM20.75 21.75C20.75 22.4375 20.1875 23 19.5 23C18.8125 23 18.25 22.4375 18.25 21.75V18H7V4.25H20.75V21.75Z" fill="#ED5F6C"/>
<path d="M15.75 6.75H8.25V9.25H15.75V6.75Z" fill="#ED5F6C"/>
<path d="M19.5 6.75H17V9.25H19.5V6.75Z" fill="#ED5F6C"/>
<path d="M15.75 10.5H8.25V13H15.75V10.5Z" fill="#ED5F6C"/>
<path d="M19.5 10.5H17V13H19.5V10.5Z" fill="#ED5F6C"/>
</svg>
