<svg width="12" height="14" viewBox="0 0 12 14" fill="none" xmlns="http://www.w3.org/2000/svg">
<path d="M10 9.7187C9.49333 9.7187 9.04 9.9187 8.69333 10.232L3.94 7.46536C3.97333 7.31203 4 7.1587 4 6.9987C4 6.8387 3.97333 6.68536 3.94 6.53203L8.64 3.79203C9 4.12536 9.47333 4.33203 10 4.33203C11.1067 4.33203 12 3.4387 12 2.33203C12 1.22536 11.1067 0.332031 10 0.332031C8.89333 0.332031 8 1.22536 8 2.33203C8 2.49203 8.02667 2.64536 8.06 2.7987L3.36 5.5387C3 5.20537 2.52667 4.9987 2 4.9987C0.893333 4.9987 0 5.89203 0 6.9987C0 8.10536 0.893333 8.9987 2 8.9987C2.52667 8.9987 3 8.79203 3.36 8.4587L8.10667 11.232C8.07333 11.372 8.05333 11.5187 8.05333 11.6654C8.05333 12.7387 8.92667 13.612 10 13.612C11.0733 13.612 11.9467 12.7387 11.9467 11.6654C11.9467 10.592 11.0733 9.7187 10 9.7187ZM10 1.66536C10.3667 1.66536 10.6667 1.96536 10.6667 2.33203C10.6667 2.6987 10.3667 2.9987 10 2.9987C9.63333 2.9987 9.33333 2.6987 9.33333 2.33203C9.33333 1.96536 9.63333 1.66536 10 1.66536ZM2 7.66536C1.63333 7.66536 1.33333 7.36536 1.33333 6.9987C1.33333 6.63203 1.63333 6.33203 2 6.33203C2.36667 6.33203 2.66667 6.63203 2.66667 6.9987C2.66667 7.36536 2.36667 7.66536 2 7.66536ZM10 12.3454C9.63333 12.3454 9.33333 12.0454 9.33333 11.6787C9.33333 11.312 9.63333 11.012 10 11.012C10.3667 11.012 10.6667 11.312 10.6667 11.6787C10.6667 12.0454 10.3667 12.3454 10 12.3454Z" fill="#0D60E9"/>
</svg>
