<svg width="30" height="30" viewBox="0 0 30 30" fill="none" xmlns="http://www.w3.org/2000/svg">
<path d="M15 30C23.2843 30 30 23.2843 30 15C30 6.71573 23.2843 0 15 0C6.71573 0 0 6.71573 0 15C0 23.2843 6.71573 30 15 30Z" fill="url(#paint0_linear_0_1)"/>
<path d="M22.3008 8.62933L19.623 22.1352C19.623 22.1352 19.248 23.0727 18.2168 22.6215L12.0352 17.8813L9.78515 16.7973L6 15.5258C6 15.5258 5.41992 15.3207 5.36133 14.8696C5.30273 14.4184 6.01758 14.1782 6.01758 14.1782L21.0645 8.27777C21.0645 8.27191 22.3008 7.72699 22.3008 8.62933Z" fill="white"/>
<path d="M11.5547 21.9844C11.5547 21.9844 11.373 21.9668 11.1504 21.2578C10.9277 20.5488 9.78516 16.7988 9.78516 16.7988L18.8731 11.0273C18.8731 11.0273 19.4004 10.7109 19.377 11.0273C19.377 11.0273 19.4707 11.0859 19.1895 11.3438C18.9082 11.6074 12.0527 17.7715 12.0527 17.7715" fill="#D2E4F0"/>
<path d="M14.4023 19.6973L11.959 21.9297C11.959 21.9297 11.7656 22.0762 11.5605 21.9824L12.0293 17.8398" fill="#B5CFE4"/>
<defs>
<linearGradient id="paint0_linear_0_1" x1="15" y1="0" x2="15" y2="29.8906" gradientUnits="userSpaceOnUse">
<stop stop-color="#41BCE7"/>
<stop offset="1" stop-color="#22A6DC"/>
</linearGradient>
</defs>
</svg>
