<svg width="30" height="30" viewBox="0 0 30 30" fill="none" xmlns="http://www.w3.org/2000/svg">
<path d="M15 30C6.717 30 0 23.283 0 15C0 6.717 6.717 0 15 0C23.283 0 30 6.717 30 15C30 23.283 23.283 30 15 30Z" fill="#25D366"/>
<path fill-rule="evenodd" clip-rule="evenodd" d="M22.017 8.017C20.157 6.154 17.679 5.128 15.042 5.125C9.60902 5.125 5.18403 9.547 5.18403 14.983C5.18403 16.72 5.63703 18.418 6.50102 19.912L5.10303 25.021L10.329 23.65C11.769 24.436 13.389 24.85 15.039 24.85H15.042C20.475 24.85 24.897 20.428 24.9 14.992C24.903 12.358 23.88 9.88 22.017 8.017ZM15.045 23.185H15.042C13.572 23.185 12.129 22.789 10.872 22.042L10.572 21.865L7.47002 22.678L8.29802 19.654L8.10302 19.345C7.28402 18.04 6.84902 16.534 6.84902 14.983C6.85202 10.465 10.527 6.79 15.048 6.79C17.238 6.79 19.293 7.645 20.841 9.193C22.389 10.741 23.241 12.802 23.238 14.989C23.238 19.51 19.56 23.185 15.045 23.185ZM19.539 17.047C19.293 16.924 18.081 16.327 17.856 16.246C17.631 16.165 17.466 16.123 17.301 16.369C17.136 16.615 16.665 17.17 16.521 17.335C16.377 17.5 16.233 17.521 15.987 17.398C15.741 17.275 14.946 17.014 14.007 16.174C13.275 15.52 12.78 14.713 12.636 14.467C12.492 14.221 12.621 14.086 12.744 13.963C12.855 13.852 12.99 13.675 13.113 13.531C13.236 13.387 13.278 13.285 13.359 13.12C13.44 12.955 13.401 12.811 13.338 12.688C13.275 12.565 12.783 11.353 12.579 10.858C12.378 10.378 12.177 10.444 12.024 10.435C11.88 10.429 11.715 10.426 11.553 10.426C11.388 10.426 11.121 10.489 10.896 10.735C10.671 10.981 10.035 11.578 10.035 12.79C10.035 14.002 10.917 15.175 11.04 15.337C11.163 15.502 12.777 17.989 15.249 19.057C15.837 19.312 16.296 19.462 16.653 19.576C17.244 19.765 17.781 19.738 18.204 19.675C18.678 19.603 19.662 19.078 19.866 18.505C20.07 17.929 20.07 17.437 20.01 17.335C19.95 17.233 19.785 17.173 19.539 17.047Z" fill="white"/>
</svg>
