<svg width="22" height="16" viewBox="0 0 22 16" fill="none" xmlns="http://www.w3.org/2000/svg">
<path d="M10.9937 0.921875C10.9937 0.921875 4.67177 0.921881 3.08506 1.33418C2.23548 1.57156 1.53592 2.27113 1.29854 3.1332C0.88624 4.71991 0.88623 8.00586 0.88623 8.00586C0.88623 8.00586 0.88624 11.3043 1.29854 12.866C1.53592 13.7281 2.22299 14.4152 3.08506 14.6525C4.68426 15.0773 10.9937 15.0773 10.9937 15.0773C10.9937 15.0773 17.3281 15.0773 18.9147 14.665C19.7768 14.4277 20.4639 13.7531 20.6888 12.8785C21.1136 11.3043 21.1136 8.01836 21.1136 8.01836C21.1136 8.01836 21.1261 4.71991 20.6888 3.1332C20.4639 2.27113 19.7768 1.58407 18.9147 1.35918C17.3281 0.921895 10.9937 0.921875 10.9937 0.921875ZM8.98213 4.96992L14.2421 8.00586L8.98213 11.0293V4.96992Z" fill="#FF0000"/>
</svg>
